<svg width="158" height="39" viewBox="0 0 152 39" fill="none" xmlns="http://www.w3.org/2000/svg">
<path d="M5.30177 9.43618L5.78777 12.5527C6.70085 11.485 7.95266 10.6049 9.54319 9.91232C11.1632 9.21976 12.7979 8.87347 14.4473 8.87347C19.4546 8.87347 21.9582 12.6826 21.9582 20.3008C21.9582 24.3984 21.2807 27.2697 19.9258 28.9145C18.6004 30.5305 16.5091 31.3385 13.6521 31.3385C10.7066 31.3385 8.27665 30.6459 6.36213 29.2608C6.5094 30.7325 6.55358 32.2619 6.49467 33.8491V39H0V9.43618H5.30177ZM6.49467 15.929V25.7114C8.7921 26.2886 10.4415 26.5771 11.443 26.5771C12.8863 26.5771 13.873 26.1731 14.4031 25.3651C14.9628 24.5572 15.2426 22.869 15.2426 20.3008C15.2426 17.7902 14.9922 16.1021 14.4915 15.2364C13.9908 14.3418 13.1072 13.8946 11.8406 13.8946C10.3974 13.8946 8.61538 14.5727 6.49467 15.929Z" fill="#7B61FF"/>
<path d="M29.429 0H32.345C33.6116 0 34.2448 0.620421 34.2448 1.86126V4.19867C34.2448 5.43951 33.6116 6.05993 32.345 6.05993H29.429C28.1625 6.05993 27.5292 5.43951 27.5292 4.19867V1.86126C27.5292 0.620421 28.1625 0 29.429 0ZM34.1565 30.7758H27.6618V9.43618H34.1565V30.7758Z" fill="#7B61FF"/>
<path d="M50.5855 21.8158H50.3204L45.1511 30.7758H38.4356L45.1511 19.8246L38.9216 9.43618H45.593L50.232 17.6604H50.6738L55.3129 9.43618H61.9843L55.7547 19.8246L62.4703 30.7758H55.7547L50.5855 21.8158Z" fill="#7B61FF"/>
<path d="M80.4936 22.2486H72.6293C72.8355 23.8069 73.3068 24.8602 74.0431 25.4084C74.8089 25.9279 76.0607 26.1876 77.7985 26.1876C80.1254 26.1876 82.8352 26.0289 85.9279 25.7114L86.5465 29.6937C84.2785 30.7614 81.1121 31.2952 77.0474 31.2952C72.9533 31.2952 70.0373 30.4295 68.2995 28.6981C66.5617 26.9667 65.6928 24.1099 65.6928 20.1276C65.6928 15.9434 66.5323 13.0144 68.2112 11.3407C69.9195 9.66704 72.7766 8.83019 76.7823 8.83019C80.4052 8.83019 83.0267 9.45061 84.6467 10.6915C86.2666 11.9034 87.0914 13.7647 87.1208 16.2752C87.1208 18.2664 86.5906 19.7669 85.5303 20.7769C84.4994 21.758 82.8205 22.2486 80.4936 22.2486ZM72.4968 18.3962H78.6822C79.4774 18.3962 80.0076 18.2087 80.2727 17.8335C80.5672 17.4584 80.7145 16.9101 80.7145 16.1887C80.7145 15.1787 80.4494 14.4861 79.9192 14.111C79.3891 13.707 78.4171 13.505 77.0033 13.505C75.3244 13.505 74.1757 13.8368 73.5571 14.5006C72.9386 15.1354 72.5851 16.434 72.4968 18.3962Z" />
<path d="M97.5501 9.43618L97.9919 12.5527C100.761 10.071 103.529 8.83019 106.298 8.83019C109.243 8.83019 111.114 9.98446 111.909 12.293C114.472 9.98446 117.122 8.83019 119.862 8.83019C121.835 8.83019 123.337 9.33518 124.368 10.3452C125.399 11.3552 125.915 12.8269 125.915 14.7603V30.7758H119.42V16.7514C119.42 15.828 119.258 15.1787 118.934 14.8036C118.61 14.4284 118.006 14.2408 117.122 14.2408C116.416 14.2408 115.738 14.3707 115.09 14.6304C114.442 14.8901 113.5 15.3951 112.263 16.1454V30.7758H105.989V16.7514C105.989 15.828 105.797 15.1787 105.414 14.8036C105.061 14.4284 104.472 14.2408 103.647 14.2408C102.498 14.2408 100.893 14.8613 98.8314 16.1021V30.7758H92.3367V9.43618H97.5501Z"/>
<path d="M132.693 14.1976L132.074 9.86903C135.992 9.17647 139.776 8.83019 143.429 8.83019C146.374 8.83019 148.539 9.42175 149.923 10.6049C151.308 11.7592 152 13.7791 152 16.6648V30.7758H146.831L146.168 27.5294C143.988 30.04 141.308 31.2952 138.127 31.2952C136.036 31.2952 134.327 30.7614 133.002 29.6937C131.677 28.5971 131.014 27.0821 131.014 25.1487V22.9845C131.014 21.2819 131.603 19.9545 132.781 19.0022C133.959 18.0499 135.594 17.5738 137.685 17.5738H145.461V16.6215C145.432 15.525 145.167 14.7891 144.666 14.414C144.195 14.0388 143.267 13.8513 141.882 13.8513C139.467 13.8513 136.404 13.9667 132.693 14.1976ZM137.464 23.4606V24.283C137.464 25.7547 138.318 26.4906 140.027 26.4906C141.794 26.4906 143.606 25.798 145.461 24.4129V21.4262H139.585C138.171 21.455 137.464 22.1332 137.464 23.4606Z" />
</svg>
